<svg xmlns="http://www.w3.org/2000/svg" xmlns:xlink="http://www.w3.org/1999/xlink" width="256" zoomAndPan="magnify" viewBox="0 0 192 82.499998" height="110" preserveAspectRatio="xMidYMid meet" version="1.0"><defs><g/></defs><g fill="#000000" fill-opacity="1"><g transform="translate(7.427995, 41.294366)"><g><path d="M 21.0625 0 L 0.984375 0 L 0.984375 -10.578125 L 3.203125 -10.578125 C 3.753906 -10.578125 4.21875 -10.765625 4.59375 -11.140625 C 4.976562 -11.523438 5.171875 -11.992188 5.171875 -12.546875 L 5.171875 -15.078125 C 5.171875 -15.628906 4.976562 -16.09375 4.59375 -16.46875 C 4.21875 -16.851562 3.753906 -17.046875 3.203125 -17.046875 L 0.984375 -17.046875 L 0.984375 -27.609375 L 21.0625 -27.609375 C 25.039062 -27.609375 28.285156 -26.984375 30.796875 -25.734375 C 33.304688 -24.492188 35.160156 -22.832031 36.359375 -20.75 C 37.554688 -18.675781 38.15625 -16.363281 38.15625 -13.8125 C 38.15625 -11.28125 37.554688 -8.96875 36.359375 -6.875 C 35.160156 -4.789062 33.304688 -3.125 30.796875 -1.875 C 28.285156 -0.625 25.039062 0 21.0625 0 Z M 21.34375 -17.078125 L 16.6875 -17.078125 L 16.6875 -10.53125 L 21.34375 -10.53125 C 22.8125 -10.53125 23.945312 -10.851562 24.75 -11.5 C 25.550781 -12.144531 25.953125 -12.914062 25.953125 -13.8125 C 25.953125 -14.726562 25.550781 -15.5 24.75 -16.125 C 23.945312 -16.757812 22.8125 -17.078125 21.34375 -17.078125 Z M 21.34375 -17.078125 "/></g></g></g><g fill="#000000" fill-opacity="1"><g transform="translate(46.04041, 41.294366)"><g><path d="M 17.40625 -10.578125 L 19.328125 -10.578125 L 19.328125 0 L 0.984375 0 L 0.984375 -10.578125 L 3.078125 -10.578125 C 3.578125 -10.578125 4.023438 -10.71875 4.421875 -11 C 4.816406 -11.289062 5.128906 -11.648438 5.359375 -12.078125 L 7.015625 -14.953125 C 7.390625 -15.585938 7.390625 -16.09375 7.015625 -16.46875 C 6.648438 -16.851562 6.140625 -17.046875 5.484375 -17.046875 L 4.109375 -17.046875 L 4.109375 -27.609375 L 27.859375 -27.609375 C 28.253906 -27.609375 28.632812 -27.5 29 -27.28125 C 29.363281 -27.0625 29.640625 -26.726562 29.828125 -26.28125 L 36.5 -12.078125 C 36.707031 -11.597656 37.019531 -11.226562 37.4375 -10.96875 C 37.863281 -10.707031 38.3125 -10.578125 38.78125 -10.578125 L 40.59375 -10.578125 L 40.59375 0 L 21.296875 0 L 21.296875 -10.578125 L 23.234375 -10.578125 C 23.765625 -10.578125 24.144531 -10.675781 24.375 -10.875 C 24.613281 -11.070312 24.628906 -11.363281 24.421875 -11.75 L 24.03125 -12.46875 L 16.609375 -12.46875 L 16.21875 -11.75 C 16.007812 -11.363281 16.019531 -11.070312 16.25 -10.875 C 16.488281 -10.675781 16.875 -10.578125 17.40625 -10.578125 Z M 17.953125 -16.171875 L 16.890625 -14.4375 L 22.484375 -14.4375 L 21.390625 -16.171875 C 20.804688 -17.117188 20.359375 -18.09375 20.046875 -19.09375 L 19.328125 -19.09375 C 19.148438 -18.625 18.945312 -18.128906 18.71875 -17.609375 C 18.5 -17.097656 18.242188 -16.617188 17.953125 -16.171875 Z M 17.953125 -16.171875 "/></g></g></g><g fill="#000000" fill-opacity="1"><g transform="translate(87.610875, 41.294366)"><g><path d="M 18.65625 -10.578125 L 20.875 -10.578125 L 20.875 0 L 0.984375 0 L 0.984375 -10.578125 L 3.203125 -10.578125 C 3.753906 -10.578125 4.21875 -10.765625 4.59375 -11.140625 C 4.976562 -11.523438 5.171875 -11.992188 5.171875 -12.546875 L 5.171875 -15.078125 C 5.171875 -15.628906 4.976562 -16.09375 4.59375 -16.46875 C 4.21875 -16.851562 3.753906 -17.046875 3.203125 -17.046875 L 0.984375 -17.046875 L 0.984375 -27.609375 L 20.875 -27.609375 L 20.875 -17.046875 L 18.65625 -17.046875 C 18.101562 -17.046875 17.632812 -16.851562 17.25 -16.46875 C 16.875 -16.09375 16.6875 -15.628906 16.6875 -15.078125 L 16.6875 -12.546875 C 16.6875 -11.992188 16.875 -11.523438 17.25 -11.140625 C 17.632812 -10.765625 18.101562 -10.578125 18.65625 -10.578125 Z M 18.65625 -10.578125 "/></g></g></g><g fill="#000000" fill-opacity="1"><g transform="translate(109.461004, 41.294366)"><g><path d="M 35.828125 -15.421875 L 35.828125 0 L 1.1875 0 L 1.1875 -10.578125 L 3.390625 -10.578125 C 3.921875 -10.578125 4.378906 -10.765625 4.765625 -11.140625 C 5.160156 -11.523438 5.359375 -11.992188 5.359375 -12.546875 L 5.359375 -15.078125 C 5.359375 -15.628906 5.160156 -16.09375 4.765625 -16.46875 C 4.378906 -16.851562 3.921875 -17.046875 3.390625 -17.046875 L 0.984375 -17.046875 L 0.984375 -27.609375 L 22.6875 -27.609375 L 22.6875 -17.046875 L 18.8125 -17.046875 C 18.289062 -17.046875 17.832031 -16.851562 17.4375 -16.46875 C 17.039062 -16.09375 16.84375 -15.628906 16.84375 -15.078125 L 16.84375 -10.578125 L 22.40625 -10.578125 C 22.957031 -10.578125 23.421875 -10.753906 23.796875 -11.109375 C 24.179688 -11.460938 24.375 -12.019531 24.375 -12.78125 L 24.375 -15.421875 Z M 35.828125 -15.421875 "/></g></g></g><g fill="#000000" fill-opacity="1"><g transform="translate(146.25915, 41.294366)"><g><path d="M 29.234375 -10.578125 L 35.234375 -10.578125 L 35.234375 0 L 8.046875 0 L 8.046875 -10.578125 L 14.046875 -10.578125 C 14.566406 -10.578125 15.023438 -10.765625 15.421875 -11.140625 C 15.816406 -11.523438 16.015625 -11.992188 16.015625 -12.546875 L 16.015625 -13.328125 C 15.097656 -13.328125 14.351562 -13.378906 13.78125 -13.484375 C 13.21875 -13.597656 12.566406 -13.8125 11.828125 -14.125 L 8.046875 -15.78125 C 6.921875 -16.28125 5.875 -16.617188 4.90625 -16.796875 C 3.945312 -16.984375 2.929688 -17.078125 1.859375 -17.078125 L 0.78125 -17.078125 L 0.78125 -27.609375 L 20.640625 -27.609375 L 20.640625 -17.078125 L 16.328125 -17.078125 L 16.328125 -16.296875 C 16.859375 -16.296875 17.398438 -16.160156 17.953125 -15.890625 C 18.503906 -15.628906 18.953125 -15.316406 19.296875 -14.953125 L 21.21875 -12.828125 L 22.015625 -12.828125 L 23.953125 -14.953125 C 24.285156 -15.316406 24.726562 -15.628906 25.28125 -15.890625 C 25.84375 -16.160156 26.382812 -16.296875 26.90625 -16.296875 L 26.90625 -17.078125 L 22.609375 -17.078125 L 22.609375 -27.609375 L 42.453125 -27.609375 L 42.453125 -17.078125 L 41.390625 -17.078125 C 40.390625 -17.078125 39.394531 -16.988281 38.40625 -16.8125 C 37.414062 -16.644531 36.34375 -16.300781 35.1875 -15.78125 L 31.40625 -14.125 C 30.695312 -13.8125 30.066406 -13.597656 29.515625 -13.484375 C 28.960938 -13.378906 28.210938 -13.328125 27.265625 -13.328125 L 27.265625 -12.546875 C 27.265625 -11.992188 27.453125 -11.523438 27.828125 -11.140625 C 28.210938 -10.765625 28.679688 -10.578125 29.234375 -10.578125 Z M 29.234375 -10.578125 "/></g></g></g><g fill="#ff5757" fill-opacity="1"><g transform="translate(2.499441, 41.122257)"><g><path d="M 21.0625 0 L 0.984375 0 L 0.984375 -10.578125 L 3.203125 -10.578125 C 3.753906 -10.578125 4.21875 -10.765625 4.59375 -11.140625 C 4.976562 -11.523438 5.171875 -11.992188 5.171875 -12.546875 L 5.171875 -15.078125 C 5.171875 -15.628906 4.976562 -16.09375 4.59375 -16.46875 C 4.21875 -16.851562 3.753906 -17.046875 3.203125 -17.046875 L 0.984375 -17.046875 L 0.984375 -27.609375 L 21.0625 -27.609375 C 25.039062 -27.609375 28.285156 -26.984375 30.796875 -25.734375 C 33.304688 -24.492188 35.160156 -22.832031 36.359375 -20.75 C 37.554688 -18.675781 38.15625 -16.363281 38.15625 -13.8125 C 38.15625 -11.28125 37.554688 -8.96875 36.359375 -6.875 C 35.160156 -4.789062 33.304688 -3.125 30.796875 -1.875 C 28.285156 -0.625 25.039062 0 21.0625 0 Z M 21.34375 -17.078125 L 16.6875 -17.078125 L 16.6875 -10.53125 L 21.34375 -10.53125 C 22.8125 -10.53125 23.945312 -10.851562 24.75 -11.5 C 25.550781 -12.144531 25.953125 -12.914062 25.953125 -13.8125 C 25.953125 -14.726562 25.550781 -15.5 24.75 -16.125 C 23.945312 -16.757812 22.8125 -17.078125 21.34375 -17.078125 Z M 21.34375 -17.078125 "/></g></g></g><g fill="#ff5757" fill-opacity="1"><g transform="translate(41.111855, 41.122257)"><g><path d="M 17.40625 -10.578125 L 19.328125 -10.578125 L 19.328125 0 L 0.984375 0 L 0.984375 -10.578125 L 3.078125 -10.578125 C 3.578125 -10.578125 4.023438 -10.71875 4.421875 -11 C 4.816406 -11.289062 5.128906 -11.648438 5.359375 -12.078125 L 7.015625 -14.953125 C 7.390625 -15.585938 7.390625 -16.09375 7.015625 -16.46875 C 6.648438 -16.851562 6.140625 -17.046875 5.484375 -17.046875 L 4.109375 -17.046875 L 4.109375 -27.609375 L 27.859375 -27.609375 C 28.253906 -27.609375 28.632812 -27.5 29 -27.28125 C 29.363281 -27.0625 29.640625 -26.726562 29.828125 -26.28125 L 36.5 -12.078125 C 36.707031 -11.597656 37.019531 -11.226562 37.4375 -10.96875 C 37.863281 -10.707031 38.3125 -10.578125 38.78125 -10.578125 L 40.59375 -10.578125 L 40.59375 0 L 21.296875 0 L 21.296875 -10.578125 L 23.234375 -10.578125 C 23.765625 -10.578125 24.144531 -10.675781 24.375 -10.875 C 24.613281 -11.070312 24.628906 -11.363281 24.421875 -11.75 L 24.03125 -12.46875 L 16.609375 -12.46875 L 16.21875 -11.75 C 16.007812 -11.363281 16.019531 -11.070312 16.25 -10.875 C 16.488281 -10.675781 16.875 -10.578125 17.40625 -10.578125 Z M 17.953125 -16.171875 L 16.890625 -14.4375 L 22.484375 -14.4375 L 21.390625 -16.171875 C 20.804688 -17.117188 20.359375 -18.09375 20.046875 -19.09375 L 19.328125 -19.09375 C 19.148438 -18.625 18.945312 -18.128906 18.71875 -17.609375 C 18.5 -17.097656 18.242188 -16.617188 17.953125 -16.171875 Z M 17.953125 -16.171875 "/></g></g></g><g fill="#ff5757" fill-opacity="1"><g transform="translate(82.682321, 41.122257)"><g><path d="M 18.65625 -10.578125 L 20.875 -10.578125 L 20.875 0 L 0.984375 0 L 0.984375 -10.578125 L 3.203125 -10.578125 C 3.753906 -10.578125 4.21875 -10.765625 4.59375 -11.140625 C 4.976562 -11.523438 5.171875 -11.992188 5.171875 -12.546875 L 5.171875 -15.078125 C 5.171875 -15.628906 4.976562 -16.09375 4.59375 -16.46875 C 4.21875 -16.851562 3.753906 -17.046875 3.203125 -17.046875 L 0.984375 -17.046875 L 0.984375 -27.609375 L 20.875 -27.609375 L 20.875 -17.046875 L 18.65625 -17.046875 C 18.101562 -17.046875 17.632812 -16.851562 17.25 -16.46875 C 16.875 -16.09375 16.6875 -15.628906 16.6875 -15.078125 L 16.6875 -12.546875 C 16.6875 -11.992188 16.875 -11.523438 17.25 -11.140625 C 17.632812 -10.765625 18.101562 -10.578125 18.65625 -10.578125 Z M 18.65625 -10.578125 "/></g></g></g><g fill="#ff5757" fill-opacity="1"><g transform="translate(104.532449, 41.122257)"><g><path d="M 35.828125 -15.421875 L 35.828125 0 L 1.1875 0 L 1.1875 -10.578125 L 3.390625 -10.578125 C 3.921875 -10.578125 4.378906 -10.765625 4.765625 -11.140625 C 5.160156 -11.523438 5.359375 -11.992188 5.359375 -12.546875 L 5.359375 -15.078125 C 5.359375 -15.628906 5.160156 -16.09375 4.765625 -16.46875 C 4.378906 -16.851562 3.921875 -17.046875 3.390625 -17.046875 L 0.984375 -17.046875 L 0.984375 -27.609375 L 22.6875 -27.609375 L 22.6875 -17.046875 L 18.8125 -17.046875 C 18.289062 -17.046875 17.832031 -16.851562 17.4375 -16.46875 C 17.039062 -16.09375 16.84375 -15.628906 16.84375 -15.078125 L 16.84375 -10.578125 L 22.40625 -10.578125 C 22.957031 -10.578125 23.421875 -10.753906 23.796875 -11.109375 C 24.179688 -11.460938 24.375 -12.019531 24.375 -12.78125 L 24.375 -15.421875 Z M 35.828125 -15.421875 "/></g></g></g><g fill="#ff5757" fill-opacity="1"><g transform="translate(141.330596, 41.122257)"><g><path d="M 29.234375 -10.578125 L 35.234375 -10.578125 L 35.234375 0 L 8.046875 0 L 8.046875 -10.578125 L 14.046875 -10.578125 C 14.566406 -10.578125 15.023438 -10.765625 15.421875 -11.140625 C 15.816406 -11.523438 16.015625 -11.992188 16.015625 -12.546875 L 16.015625 -13.328125 C 15.097656 -13.328125 14.351562 -13.378906 13.78125 -13.484375 C 13.21875 -13.597656 12.566406 -13.8125 11.828125 -14.125 L 8.046875 -15.78125 C 6.921875 -16.28125 5.875 -16.617188 4.90625 -16.796875 C 3.945312 -16.984375 2.929688 -17.078125 1.859375 -17.078125 L 0.78125 -17.078125 L 0.78125 -27.609375 L 20.640625 -27.609375 L 20.640625 -17.078125 L 16.328125 -17.078125 L 16.328125 -16.296875 C 16.859375 -16.296875 17.398438 -16.160156 17.953125 -15.890625 C 18.503906 -15.628906 18.953125 -15.316406 19.296875 -14.953125 L 21.21875 -12.828125 L 22.015625 -12.828125 L 23.953125 -14.953125 C 24.285156 -15.316406 24.726562 -15.628906 25.28125 -15.890625 C 25.84375 -16.160156 26.382812 -16.296875 26.90625 -16.296875 L 26.90625 -17.078125 L 22.609375 -17.078125 L 22.609375 -27.609375 L 42.453125 -27.609375 L 42.453125 -17.078125 L 41.390625 -17.078125 C 40.390625 -17.078125 39.394531 -16.988281 38.40625 -16.8125 C 37.414062 -16.644531 36.34375 -16.300781 35.1875 -15.78125 L 31.40625 -14.125 C 30.695312 -13.8125 30.066406 -13.597656 29.515625 -13.484375 C 28.960938 -13.378906 28.210938 -13.328125 27.265625 -13.328125 L 27.265625 -12.546875 C 27.265625 -11.992188 27.453125 -11.523438 27.828125 -11.140625 C 28.210938 -10.765625 28.679688 -10.578125 29.234375 -10.578125 Z M 29.234375 -10.578125 "/></g></g></g><g fill="#000000" fill-opacity="1"><g transform="translate(21.231058, 71.113641)"><g><path d="M 25.609375 0 L 0.984375 0 L 0.984375 -10.578125 L 3.390625 -10.578125 C 3.941406 -10.578125 4.40625 -10.765625 4.78125 -11.140625 C 5.164062 -11.523438 5.359375 -11.992188 5.359375 -12.546875 L 5.359375 -15.078125 C 5.359375 -15.628906 5.164062 -16.09375 4.78125 -16.46875 C 4.40625 -16.851562 3.941406 -17.046875 3.390625 -17.046875 L 1.1875 -17.046875 L 1.1875 -27.609375 L 24.0625 -27.609375 C 28.195312 -27.609375 31.222656 -27.0625 33.140625 -25.96875 C 35.054688 -24.882812 36.015625 -23.273438 36.015625 -21.140625 C 36.015625 -19.117188 35.25 -17.535156 33.71875 -16.390625 C 32.195312 -15.242188 30.070312 -14.671875 27.34375 -14.671875 L 27.34375 -13.96875 C 31.175781 -14.039062 33.988281 -13.554688 35.78125 -12.515625 C 37.570312 -11.484375 38.46875 -9.742188 38.46875 -7.296875 C 38.46875 -5.003906 37.425781 -3.210938 35.34375 -1.921875 C 33.269531 -0.640625 30.023438 0 25.609375 0 Z M 16.890625 -17 L 16.890625 -14.75 L 22.84375 -14.75 C 23.3125 -14.75 23.671875 -14.867188 23.921875 -15.109375 C 24.171875 -15.347656 24.296875 -15.613281 24.296875 -15.90625 C 24.296875 -16.1875 24.148438 -16.4375 23.859375 -16.65625 C 23.578125 -16.882812 23.160156 -17 22.609375 -17 Z M 16.890625 -13.171875 L 16.890625 -10.578125 L 24.578125 -10.578125 C 25.265625 -10.578125 25.785156 -10.707031 26.140625 -10.96875 C 26.492188 -11.226562 26.671875 -11.53125 26.671875 -11.875 C 26.671875 -12.21875 26.519531 -12.519531 26.21875 -12.78125 C 25.914062 -13.039062 25.460938 -13.171875 24.859375 -13.171875 Z M 16.890625 -13.171875 "/></g></g></g><g fill="#000000" fill-opacity="1"><g transform="translate(60.158997, 71.113641)"><g><path d="M 21.1875 0.59375 C 18.394531 0.59375 15.878906 0.28125 13.640625 -0.34375 C 11.410156 -0.976562 9.539062 -1.859375 8.03125 -2.984375 C 6.519531 -4.117188 5.445312 -5.457031 4.8125 -7 C 4.175781 -8.539062 4.070312 -10.234375 4.5 -12.078125 L 5.171875 -15.078125 C 5.296875 -15.597656 5.148438 -16.054688 4.734375 -16.453125 C 4.316406 -16.847656 3.804688 -17.046875 3.203125 -17.046875 L 0.78125 -17.046875 L 0.78125 -27.609375 L 20.203125 -27.609375 L 20.203125 -17.046875 L 18.65625 -17.046875 C 18.050781 -17.046875 17.59375 -16.84375 17.28125 -16.4375 C 16.96875 -16.03125 16.769531 -15.507812 16.6875 -14.875 L 16.65625 -14.515625 C 16.539062 -13.515625 16.867188 -12.585938 17.640625 -11.734375 C 18.421875 -10.878906 19.601562 -10.453125 21.1875 -10.453125 C 22.738281 -10.453125 23.90625 -10.863281 24.6875 -11.6875 C 25.476562 -12.519531 25.8125 -13.460938 25.6875 -14.515625 L 25.640625 -14.875 C 25.566406 -15.507812 25.363281 -16.03125 25.03125 -16.4375 C 24.707031 -16.84375 24.253906 -17.046875 23.671875 -17.046875 L 22.171875 -17.046875 L 22.171875 -27.609375 L 41.546875 -27.609375 L 41.546875 -17.046875 L 39.140625 -17.046875 C 38.554688 -17.046875 38.050781 -16.847656 37.625 -16.453125 C 37.207031 -16.054688 37.054688 -15.597656 37.171875 -15.078125 L 37.828125 -12.078125 C 38.253906 -10.234375 38.15625 -8.539062 37.53125 -7 C 36.914062 -5.457031 35.859375 -4.117188 34.359375 -2.984375 C 32.859375 -1.859375 30.988281 -0.976562 28.75 -0.34375 C 26.519531 0.28125 24 0.59375 21.1875 0.59375 Z M 21.1875 0.59375 "/></g></g></g><g fill="#000000" fill-opacity="1"><g transform="translate(102.478835, 71.113641)"><g><path d="M 24.1875 -12.5 L 24.1875 -13.453125 L 35.625 -13.453125 L 35.625 0 L 0.984375 0 L 0.984375 -8.953125 C 0.984375 -9.554688 1.15625 -10.085938 1.5 -10.546875 C 1.84375 -11.015625 2.328125 -11.328125 2.953125 -11.484375 L 18.234375 -15.46875 C 18.859375 -15.625 19.601562 -15.789062 20.46875 -15.96875 C 21.34375 -16.15625 22.1875 -16.25 23 -16.25 L 23 -17.046875 L 14.40625 -17.046875 C 13.851562 -17.046875 13.382812 -16.867188 13 -16.515625 C 12.613281 -16.160156 12.421875 -15.597656 12.421875 -14.828125 L 12.421875 -14.5625 L 0.984375 -14.5625 L 0.984375 -27.609375 L 12.421875 -27.609375 L 12.421875 -19.296875 L 13.21875 -19.296875 C 13.21875 -21.898438 13.878906 -23.9375 15.203125 -25.40625 C 16.535156 -26.875 18.632812 -27.609375 21.5 -27.609375 L 35.625 -27.609375 L 35.625 -16.09375 C 34.125 -16.09375 32.679688 -16.015625 31.296875 -15.859375 C 29.921875 -15.703125 28.640625 -15.453125 27.453125 -15.109375 L 16.84375 -12.109375 C 16.1875 -11.921875 15.503906 -11.75 14.796875 -11.59375 C 14.085938 -11.4375 13.390625 -11.359375 12.703125 -11.359375 L 12.703125 -10.578125 L 22.21875 -10.578125 C 22.769531 -10.578125 23.234375 -10.707031 23.609375 -10.96875 C 23.992188 -11.226562 24.1875 -11.738281 24.1875 -12.5 Z M 24.1875 -12.5 "/></g></g></g><g fill="#000000" fill-opacity="1"><g transform="translate(139.079781, 71.113641)"><g><path d="M 24.1875 -12.5 L 24.1875 -13.453125 L 35.625 -13.453125 L 35.625 0 L 0.984375 0 L 0.984375 -8.953125 C 0.984375 -9.554688 1.15625 -10.085938 1.5 -10.546875 C 1.84375 -11.015625 2.328125 -11.328125 2.953125 -11.484375 L 18.234375 -15.46875 C 18.859375 -15.625 19.601562 -15.789062 20.46875 -15.96875 C 21.34375 -16.15625 22.1875 -16.25 23 -16.25 L 23 -17.046875 L 14.40625 -17.046875 C 13.851562 -17.046875 13.382812 -16.867188 13 -16.515625 C 12.613281 -16.160156 12.421875 -15.597656 12.421875 -14.828125 L 12.421875 -14.5625 L 0.984375 -14.5625 L 0.984375 -27.609375 L 12.421875 -27.609375 L 12.421875 -19.296875 L 13.21875 -19.296875 C 13.21875 -21.898438 13.878906 -23.9375 15.203125 -25.40625 C 16.535156 -26.875 18.632812 -27.609375 21.5 -27.609375 L 35.625 -27.609375 L 35.625 -16.09375 C 34.125 -16.09375 32.679688 -16.015625 31.296875 -15.859375 C 29.921875 -15.703125 28.640625 -15.453125 27.453125 -15.109375 L 16.84375 -12.109375 C 16.1875 -11.921875 15.503906 -11.75 14.796875 -11.59375 C 14.085938 -11.4375 13.390625 -11.359375 12.703125 -11.359375 L 12.703125 -10.578125 L 22.21875 -10.578125 C 22.769531 -10.578125 23.234375 -10.707031 23.609375 -10.96875 C 23.992188 -11.226562 24.1875 -11.738281 24.1875 -12.5 Z M 24.1875 -12.5 "/></g></g></g><g fill="#ff5757" fill-opacity="1"><g transform="translate(16.302504, 70.941532)"><g><path d="M 25.609375 0 L 0.984375 0 L 0.984375 -10.578125 L 3.390625 -10.578125 C 3.941406 -10.578125 4.40625 -10.765625 4.78125 -11.140625 C 5.164062 -11.523438 5.359375 -11.992188 5.359375 -12.546875 L 5.359375 -15.078125 C 5.359375 -15.628906 5.164062 -16.09375 4.78125 -16.46875 C 4.40625 -16.851562 3.941406 -17.046875 3.390625 -17.046875 L 1.1875 -17.046875 L 1.1875 -27.609375 L 24.0625 -27.609375 C 28.195312 -27.609375 31.222656 -27.0625 33.140625 -25.96875 C 35.054688 -24.882812 36.015625 -23.273438 36.015625 -21.140625 C 36.015625 -19.117188 35.25 -17.535156 33.71875 -16.390625 C 32.195312 -15.242188 30.070312 -14.671875 27.34375 -14.671875 L 27.34375 -13.96875 C 31.175781 -14.039062 33.988281 -13.554688 35.78125 -12.515625 C 37.570312 -11.484375 38.46875 -9.742188 38.46875 -7.296875 C 38.46875 -5.003906 37.425781 -3.210938 35.34375 -1.921875 C 33.269531 -0.640625 30.023438 0 25.609375 0 Z M 16.890625 -17 L 16.890625 -14.75 L 22.84375 -14.75 C 23.3125 -14.75 23.671875 -14.867188 23.921875 -15.109375 C 24.171875 -15.347656 24.296875 -15.613281 24.296875 -15.90625 C 24.296875 -16.1875 24.148438 -16.4375 23.859375 -16.65625 C 23.578125 -16.882812 23.160156 -17 22.609375 -17 Z M 16.890625 -13.171875 L 16.890625 -10.578125 L 24.578125 -10.578125 C 25.265625 -10.578125 25.785156 -10.707031 26.140625 -10.96875 C 26.492188 -11.226562 26.671875 -11.53125 26.671875 -11.875 C 26.671875 -12.21875 26.519531 -12.519531 26.21875 -12.78125 C 25.914062 -13.039062 25.460938 -13.171875 24.859375 -13.171875 Z M 16.890625 -13.171875 "/></g></g></g><g fill="#ff5757" fill-opacity="1"><g transform="translate(55.230443, 70.941532)"><g><path d="M 21.1875 0.59375 C 18.394531 0.59375 15.878906 0.28125 13.640625 -0.34375 C 11.410156 -0.976562 9.539062 -1.859375 8.03125 -2.984375 C 6.519531 -4.117188 5.445312 -5.457031 4.8125 -7 C 4.175781 -8.539062 4.070312 -10.234375 4.5 -12.078125 L 5.171875 -15.078125 C 5.296875 -15.597656 5.148438 -16.054688 4.734375 -16.453125 C 4.316406 -16.847656 3.804688 -17.046875 3.203125 -17.046875 L 0.78125 -17.046875 L 0.78125 -27.609375 L 20.203125 -27.609375 L 20.203125 -17.046875 L 18.65625 -17.046875 C 18.050781 -17.046875 17.59375 -16.84375 17.28125 -16.4375 C 16.96875 -16.03125 16.769531 -15.507812 16.6875 -14.875 L 16.65625 -14.515625 C 16.539062 -13.515625 16.867188 -12.585938 17.640625 -11.734375 C 18.421875 -10.878906 19.601562 -10.453125 21.1875 -10.453125 C 22.738281 -10.453125 23.90625 -10.863281 24.6875 -11.6875 C 25.476562 -12.519531 25.8125 -13.460938 25.6875 -14.515625 L 25.640625 -14.875 C 25.566406 -15.507812 25.363281 -16.03125 25.03125 -16.4375 C 24.707031 -16.84375 24.253906 -17.046875 23.671875 -17.046875 L 22.171875 -17.046875 L 22.171875 -27.609375 L 41.546875 -27.609375 L 41.546875 -17.046875 L 39.140625 -17.046875 C 38.554688 -17.046875 38.050781 -16.847656 37.625 -16.453125 C 37.207031 -16.054688 37.054688 -15.597656 37.171875 -15.078125 L 37.828125 -12.078125 C 38.253906 -10.234375 38.15625 -8.539062 37.53125 -7 C 36.914062 -5.457031 35.859375 -4.117188 34.359375 -2.984375 C 32.859375 -1.859375 30.988281 -0.976562 28.75 -0.34375 C 26.519531 0.28125 24 0.59375 21.1875 0.59375 Z M 21.1875 0.59375 "/></g></g></g><g fill="#ff5757" fill-opacity="1"><g transform="translate(97.55028, 70.941532)"><g><path d="M 24.1875 -12.5 L 24.1875 -13.453125 L 35.625 -13.453125 L 35.625 0 L 0.984375 0 L 0.984375 -8.953125 C 0.984375 -9.554688 1.15625 -10.085938 1.5 -10.546875 C 1.84375 -11.015625 2.328125 -11.328125 2.953125 -11.484375 L 18.234375 -15.46875 C 18.859375 -15.625 19.601562 -15.789062 20.46875 -15.96875 C 21.34375 -16.15625 22.1875 -16.25 23 -16.25 L 23 -17.046875 L 14.40625 -17.046875 C 13.851562 -17.046875 13.382812 -16.867188 13 -16.515625 C 12.613281 -16.160156 12.421875 -15.597656 12.421875 -14.828125 L 12.421875 -14.5625 L 0.984375 -14.5625 L 0.984375 -27.609375 L 12.421875 -27.609375 L 12.421875 -19.296875 L 13.21875 -19.296875 C 13.21875 -21.898438 13.878906 -23.9375 15.203125 -25.40625 C 16.535156 -26.875 18.632812 -27.609375 21.5 -27.609375 L 35.625 -27.609375 L 35.625 -16.09375 C 34.125 -16.09375 32.679688 -16.015625 31.296875 -15.859375 C 29.921875 -15.703125 28.640625 -15.453125 27.453125 -15.109375 L 16.84375 -12.109375 C 16.1875 -11.921875 15.503906 -11.75 14.796875 -11.59375 C 14.085938 -11.4375 13.390625 -11.359375 12.703125 -11.359375 L 12.703125 -10.578125 L 22.21875 -10.578125 C 22.769531 -10.578125 23.234375 -10.707031 23.609375 -10.96875 C 23.992188 -11.226562 24.1875 -11.738281 24.1875 -12.5 Z M 24.1875 -12.5 "/></g></g></g><g fill="#ff5757" fill-opacity="1"><g transform="translate(134.151227, 70.941532)"><g><path d="M 24.1875 -12.5 L 24.1875 -13.453125 L 35.625 -13.453125 L 35.625 0 L 0.984375 0 L 0.984375 -8.953125 C 0.984375 -9.554688 1.15625 -10.085938 1.5 -10.546875 C 1.84375 -11.015625 2.328125 -11.328125 2.953125 -11.484375 L 18.234375 -15.46875 C 18.859375 -15.625 19.601562 -15.789062 20.46875 -15.96875 C 21.34375 -16.15625 22.1875 -16.25 23 -16.25 L 23 -17.046875 L 14.40625 -17.046875 C 13.851562 -17.046875 13.382812 -16.867188 13 -16.515625 C 12.613281 -16.160156 12.421875 -15.597656 12.421875 -14.828125 L 12.421875 -14.5625 L 0.984375 -14.5625 L 0.984375 -27.609375 L 12.421875 -27.609375 L 12.421875 -19.296875 L 13.21875 -19.296875 C 13.21875 -21.898438 13.878906 -23.9375 15.203125 -25.40625 C 16.535156 -26.875 18.632812 -27.609375 21.5 -27.609375 L 35.625 -27.609375 L 35.625 -16.09375 C 34.125 -16.09375 32.679688 -16.015625 31.296875 -15.859375 C 29.921875 -15.703125 28.640625 -15.453125 27.453125 -15.109375 L 16.84375 -12.109375 C 16.1875 -11.921875 15.503906 -11.75 14.796875 -11.59375 C 14.085938 -11.4375 13.390625 -11.359375 12.703125 -11.359375 L 12.703125 -10.578125 L 22.21875 -10.578125 C 22.769531 -10.578125 23.234375 -10.707031 23.609375 -10.96875 C 23.992188 -11.226562 24.1875 -11.738281 24.1875 -12.5 Z M 24.1875 -12.5 "/></g></g></g></svg>